<svg width="270" height="157" viewBox="0 0 270 157" fill="none" xmlns="http://www.w3.org/2000/svg">
<path d="M0 146.599C0.750137 151.605 5.57245 156.079 12.8059 156.079C22.7184 156.079 26.6299 149.528 26.6299 142.338V118.957H19.7715V122.046C18.8606 120.288 16.4494 118.477 12.2701 118.477C5.03664 118.477 0 124.336 0 131.26C0 138.61 5.25096 143.989 12.2701 143.989C16.0744 143.989 18.5391 142.338 19.6107 140.634V142.551C19.6107 147.611 17.0924 149.848 12.5916 149.848C9.21597 149.848 6.91198 147.771 6.42975 144.894L0 146.599ZM13.5025 137.917C9.80537 137.917 7.17988 135.361 7.17988 131.26C7.17988 127.212 9.96611 124.656 13.5025 124.656C16.9317 124.656 19.7179 127.212 19.7179 131.26C19.7179 135.308 17.146 137.917 13.5025 137.917Z" fill="white"/>
<path d="M41.0173 118.957H33.891V145.161H41.0173V123.75C41.178 126.2 43.2141 128.064 45.786 128.064C48.4651 128.064 50.5547 125.987 50.5547 123.324C50.5547 120.661 48.4651 118.584 45.786 118.584C43.2141 118.584 41.178 120.501 41.0173 123.004V118.957Z" fill="white"/>
<path d="M53.2673 138.024C53.2673 142.125 56.6965 145.906 62.3225 145.906C66.2339 145.906 68.7523 144.096 70.0918 142.018C70.0918 143.03 70.1989 144.468 70.3597 145.161H76.8966C76.7359 144.255 76.5751 142.391 76.5751 141.006V128.117C76.5751 122.845 73.4674 118.158 65.1087 118.158C58.036 118.158 54.2317 122.685 53.8031 126.786L60.1257 128.117C60.34 125.827 62.0546 123.857 65.1623 123.857C68.1629 123.857 69.6096 125.401 69.6096 127.265C69.6096 128.171 69.1273 128.916 67.627 129.129L61.1437 130.088C56.7501 130.727 53.2673 133.337 53.2673 138.024ZM63.8228 140.634C61.5188 140.634 60.3936 139.142 60.3936 137.598C60.3936 135.574 61.8403 134.562 63.662 134.296L69.6096 133.39V134.562C69.6096 139.196 66.8233 140.634 63.8228 140.634Z" fill="white"/>
<path d="M90.7787 130.088C90.7787 127.052 92.6005 124.656 95.7082 124.656C99.1374 124.656 100.584 126.946 100.584 129.875V145.161H107.71V128.65C107.71 122.898 104.71 118.264 98.1729 118.264C95.3331 118.264 92.1718 119.489 90.5644 122.206V118.957H83.6524V145.161H90.7787V130.088Z" fill="white"/>
<path d="M124.003 111.127H117.574V114.802C117.574 117.146 116.288 118.957 113.501 118.957H112.162V125.241H116.931V137.438C116.931 142.498 120.145 145.534 125.289 145.534C127.379 145.534 128.665 145.161 129.308 144.894V139.036C128.933 139.142 127.968 139.249 127.111 139.249C125.075 139.249 124.003 138.503 124.003 136.213V125.241H129.308V118.957H124.003V111.127Z" fill="white"/>
<path d="M133.268 137.864C133.589 140.847 136.322 145.96 144.252 145.96C151.164 145.96 154.486 141.592 154.486 137.332C154.486 133.497 151.861 130.354 146.663 129.289L142.912 128.49C141.466 128.224 140.501 127.425 140.501 126.147C140.501 124.656 142.002 123.537 143.877 123.537C146.877 123.537 148.003 125.508 148.217 127.052L154.164 125.721C153.843 122.898 151.325 118.158 143.823 118.158C138.144 118.158 133.964 122.046 133.964 126.733C133.964 130.408 136.268 133.444 141.359 134.562L144.841 135.361C146.877 135.787 147.681 136.746 147.681 137.917C147.681 139.302 146.556 140.527 144.198 140.527C141.091 140.527 139.537 138.61 139.376 136.533L133.268 137.864Z" fill="white"/>
<path fill-rule="evenodd" clip-rule="evenodd" d="M208.749 11.0474C208.749 10.5584 208.35 10.1621 207.858 10.1621C207.366 10.1621 206.967 10.5584 206.967 11.0474V11.1034C206.967 11.5923 207.366 11.9886 207.858 11.9886C208.35 11.9886 208.749 11.5923 208.749 11.1034V11.0474ZM208.749 20.0682C208.749 19.5793 208.35 19.1829 207.858 19.1829C207.366 19.1829 206.967 19.5793 206.967 20.0682V20.1802C206.967 20.6691 207.366 21.0655 207.858 21.0655C208.35 21.0655 208.749 20.6691 208.749 20.1802V20.0682ZM208.749 29.145C208.749 28.6561 208.35 28.2598 207.858 28.2598C207.366 28.2598 206.967 28.6561 206.967 29.145V29.2571C206.967 29.746 207.366 30.1423 207.858 30.1423C208.35 30.1423 208.749 29.746 208.749 29.2571V29.145ZM208.749 38.2219C208.749 37.733 208.35 37.3366 207.858 37.3366C207.366 37.3366 206.967 37.733 206.967 38.2219V38.2779C206.967 38.7668 207.366 39.1631 207.858 39.1631C208.35 39.1631 208.749 38.7668 208.749 38.2779V38.2219ZM208.749 83.0048C208.749 82.5159 208.35 82.1195 207.858 82.1195C207.366 82.1195 206.967 82.5159 206.967 83.0048V83.0646C206.967 83.5535 207.366 83.9498 207.858 83.9498C208.35 83.9498 208.749 83.5535 208.749 83.0646V83.0048ZM208.749 92.6314C208.749 92.1425 208.35 91.7462 207.858 91.7462C207.366 91.7462 206.967 92.1425 206.967 92.6314V92.751C206.967 93.2399 207.366 93.6362 207.858 93.6362C208.35 93.6362 208.749 93.2399 208.749 92.751V92.6314ZM208.749 102.318C208.749 101.829 208.35 101.433 207.858 101.433C207.366 101.433 206.967 101.829 206.967 102.318V102.437C206.967 102.926 207.366 103.323 207.858 103.323C208.35 103.323 208.749 102.926 208.749 102.437V102.318ZM208.749 112.004C208.749 111.515 208.35 111.119 207.858 111.119C207.366 111.119 206.967 111.515 206.967 112.004V112.124C206.967 112.613 207.366 113.009 207.858 113.009C208.35 113.009 208.749 112.613 208.749 112.124V112.004ZM208.749 121.691C208.749 121.202 208.35 120.805 207.858 120.805C207.366 120.805 206.967 121.202 206.967 121.691V121.75C206.967 122.239 207.366 122.636 207.858 122.636C208.35 122.636 208.749 122.239 208.749 121.75V121.691ZM268.961 61.8983C268.961 62.3872 268.562 62.7836 268.071 62.7836H268.017C267.525 62.7836 267.126 62.3872 267.126 61.8983C267.126 61.4094 267.525 61.0131 268.017 61.0131H268.071C268.562 61.0131 268.961 61.4094 268.961 61.8983ZM260.286 61.8983C260.286 62.3872 259.887 62.7836 259.395 62.7836H259.288C258.796 62.7836 258.397 62.3872 258.397 61.8983C258.397 61.4094 258.796 61.0131 259.288 61.0131H259.395C259.887 61.0131 260.286 61.4094 260.286 61.8983ZM251.557 61.8983C251.557 62.3872 251.158 62.7836 250.666 62.7836H250.559C250.067 62.7836 249.668 62.3872 249.668 61.8983C249.668 61.4094 250.067 61.0131 250.559 61.0131H250.666C251.158 61.0131 251.557 61.4094 251.557 61.8983ZM242.828 61.8983C242.828 62.3872 242.429 62.7836 241.937 62.7836H241.829C241.338 62.7836 240.939 62.3872 240.939 61.8983C240.939 61.4094 241.338 61.0131 241.829 61.0131H241.937C242.429 61.0131 242.828 61.4094 242.828 61.8983ZM234.099 61.8983C234.099 62.3872 233.7 62.7836 233.208 62.7836H233.1C232.609 62.7836 232.21 62.3872 232.21 61.8983C232.21 61.4094 232.609 61.0131 233.1 61.0131H233.208C233.7 61.0131 234.099 61.4094 234.099 61.8983ZM225.37 61.8983C225.37 62.3872 224.971 62.7836 224.479 62.7836H224.425C223.933 62.7836 223.535 62.3872 223.535 61.8983C223.535 61.4094 223.933 61.0131 224.425 61.0131H224.479C224.971 61.0131 225.37 61.4094 225.37 61.8983ZM191.672 62.7836C192.164 62.7836 192.562 62.3872 192.562 61.8983C192.562 61.4094 192.164 61.0131 191.672 61.0131H191.617C191.125 61.0131 190.727 61.4094 190.727 61.8983C190.727 62.3872 191.125 62.7836 191.617 62.7836H191.672ZM182.921 62.7836C183.413 62.7836 183.811 62.3872 183.811 61.8983C183.811 61.4094 183.413 61.0131 182.921 61.0131H182.812C182.32 61.0131 181.921 61.4094 181.921 61.8983C181.921 62.3872 182.32 62.7836 182.812 62.7836H182.921ZM174.115 62.7836C174.607 62.7836 175.006 62.3872 175.006 61.8983C175.006 61.4094 174.607 61.0131 174.115 61.0131H174.007C173.515 61.0131 173.116 61.4094 173.116 61.8983C173.116 62.3872 173.515 62.7836 174.007 62.7836H174.115ZM165.31 62.7836C165.802 62.7836 166.201 62.3872 166.201 61.8983C166.201 61.4094 165.802 61.0131 165.31 61.0131H165.201C164.709 61.0131 164.311 61.4094 164.311 61.8983C164.311 62.3872 164.709 62.7836 165.201 62.7836H165.31ZM156.505 62.7836C156.997 62.7836 157.395 62.3872 157.395 61.8983C157.395 61.4094 156.997 61.0131 156.505 61.0131H156.396C155.904 61.0131 155.505 61.4094 155.505 61.8983C155.505 62.3872 155.904 62.7836 156.396 62.7836H156.505Z" fill="white" fill-opacity="0.3"/>
<path fill-rule="evenodd" clip-rule="evenodd" d="M207.798 1.16113H207.917C208.409 1.1616 208.808 1.55831 208.807 2.04722C208.807 2.53613 208.408 2.93209 207.916 2.93162H207.8C207.308 2.93208 206.909 2.53613 206.909 2.04722C206.908 1.55831 207.306 1.1616 207.798 1.16113ZM199.381 2.62872C199.457 3.11177 199.124 3.56451 198.638 3.63994L198.524 3.65774C198.039 3.73411 197.582 3.40456 197.506 2.92165C197.429 2.43875 197.76 1.98536 198.246 1.90899L198.364 1.89065C198.849 1.81522 199.305 2.14567 199.381 2.62872ZM216.335 2.62872C216.411 2.14567 216.866 1.81522 217.352 1.89066L217.47 1.90899C217.955 1.98536 218.287 2.43875 218.21 2.92165C218.133 3.40456 217.677 3.73412 217.191 3.65774L217.077 3.63994C216.591 3.56451 216.259 3.11177 216.335 2.62872ZM225.553 4.66796C225.704 4.2028 226.207 3.94776 226.675 4.0983L226.787 4.13471C227.255 4.28616 227.511 4.78578 227.358 5.25064C227.206 5.71549 226.703 5.96956 226.236 5.8181L226.126 5.78277C225.658 5.63223 225.402 5.13311 225.553 4.66796ZM190.163 4.66796C190.314 5.13311 190.058 5.63223 189.59 5.78277L189.48 5.8181C189.012 5.96956 188.51 5.71549 188.358 5.25064C188.205 4.78578 188.461 4.28616 188.928 4.13471L189.041 4.09831C189.509 3.94776 190.011 4.2028 190.163 4.66796ZM234.332 8.12512C234.555 7.68946 235.091 7.51617 235.53 7.73806L235.635 7.79159C236.073 8.01432 236.246 8.5477 236.022 8.98292C235.798 9.41815 235.261 9.5904 234.824 9.36766L234.721 9.3157C234.283 9.09382 234.109 8.56077 234.332 8.12512ZM181.384 8.12512C181.607 8.56077 181.433 9.09382 180.994 9.31571L180.892 9.36767C180.454 9.5904 179.918 9.41815 179.694 8.98293C179.469 8.5477 179.643 8.01432 180.081 7.79159L180.186 7.73806C180.624 7.51617 181.161 7.68946 181.384 8.12512ZM173.26 12.9096C173.549 13.3052 173.461 13.8588 173.063 14.1461L172.97 14.2133C172.573 14.5014 172.016 14.4147 171.726 14.0197C171.436 13.6247 171.523 13.0709 171.921 12.7828L172.016 12.7136C172.414 12.4263 172.971 12.5141 173.26 12.9096ZM242.455 12.9096C242.744 12.5141 243.301 12.4263 243.699 12.7136L243.795 12.7828C244.192 13.0709 244.28 13.6247 243.99 14.0197C243.7 14.4147 243.143 14.5014 242.745 14.2133L242.653 14.1461C242.255 13.8588 242.166 13.3052 242.455 12.9096ZM165.987 18.8959C166.335 19.242 166.334 19.8025 165.986 20.1478L165.905 20.2287C165.558 20.5747 164.994 20.5752 164.646 20.2299C164.297 19.8845 164.297 19.324 164.644 18.9779L164.728 18.8947C165.076 18.5493 165.64 18.5499 165.987 18.8959ZM249.728 18.8959C250.076 18.5499 250.64 18.5493 250.988 18.8947L251.071 18.9779C251.419 19.324 251.418 19.8845 251.07 20.2299C250.722 20.5752 250.158 20.5747 249.811 20.2287L249.729 20.1478C249.381 19.8025 249.381 19.242 249.728 18.8959ZM159.74 25.934C160.137 26.222 160.225 26.7758 159.935 27.1708L159.867 27.2632C159.578 27.6588 159.021 27.7465 158.623 27.4592C158.225 27.1719 158.137 26.6183 158.426 26.2227L158.496 26.1276C158.785 25.7326 159.343 25.6459 159.74 25.934ZM255.976 25.934C256.373 25.6459 256.93 25.7326 257.22 26.1276L257.29 26.2227C257.579 26.6183 257.491 27.1719 257.093 27.4592C256.695 27.7465 256.138 27.6588 255.849 27.2632L255.781 27.1708C255.491 26.7758 255.578 26.222 255.976 25.934ZM261.043 33.8538C261.481 33.6311 262.017 33.8033 262.241 34.2386L262.295 34.3434C262.519 34.779 262.344 35.3121 261.906 35.534C261.468 35.7559 260.931 35.5826 260.708 35.1469L260.656 35.0452C260.432 34.6099 260.605 34.0765 261.043 33.8538ZM264.798 42.4659C265.265 42.3144 265.768 42.5685 265.92 43.0333L265.957 43.1455C266.108 43.6106 265.852 44.1097 265.384 44.2603C264.916 44.4108 264.414 44.1558 264.262 43.6906L264.227 43.5818C264.074 43.117 264.33 42.6173 264.798 42.4659ZM267.141 51.5592C267.627 51.4829 268.083 51.8124 268.159 52.2953L268.178 52.412C268.254 52.895 267.921 53.3478 267.435 53.4232C266.949 53.4986 266.494 53.1682 266.418 52.6852L266.4 52.5719C266.323 52.089 266.655 51.6356 267.141 51.5592ZM268.02 60.9059C268.512 60.9054 268.911 61.3014 268.912 61.7903V61.9086C268.911 62.3975 268.512 62.7935 268.02 62.793C267.529 62.7925 267.13 62.3958 267.131 61.9069V61.792C267.13 61.3031 267.529 60.9063 268.02 60.9059ZM267.435 70.2757C267.921 70.3511 268.254 70.8039 268.178 71.2869L268.159 71.4036C268.083 71.8865 267.627 72.216 267.141 72.1397C266.655 72.0633 266.323 71.6099 266.4 71.127L266.418 71.0137C266.494 70.5307 266.949 70.2003 267.435 70.2757ZM265.384 79.4386C265.852 79.5892 266.108 80.0883 265.957 80.5534L265.92 80.6655C265.768 81.1304 265.265 81.3845 264.798 81.233C264.33 81.0816 264.074 80.5819 264.227 80.1171L264.262 80.0083C264.414 79.5431 264.916 79.2881 265.384 79.4386ZM153.81 88.1649C154.248 87.943 154.784 88.1163 155.008 88.552L155.06 88.6537C155.284 89.089 155.111 89.6223 154.673 89.8451C154.235 90.0678 153.698 89.8956 153.474 89.4603L153.42 89.3555C153.197 88.9198 153.372 88.3868 153.81 88.1649ZM261.906 88.1649C262.344 88.3868 262.519 88.9198 262.295 89.3555L262.241 89.4603C262.017 89.8956 261.481 90.0678 261.043 89.8451C260.605 89.6223 260.432 89.089 260.656 88.6537L260.708 88.552C260.931 88.1163 261.468 87.943 261.906 88.1649ZM158.623 96.2397C159.021 95.9524 159.578 96.0401 159.867 96.4357L159.935 96.5281C160.225 96.9231 160.137 97.4769 159.74 97.7649C159.343 98.053 158.785 97.9663 158.496 97.5713L158.426 97.4761C158.137 97.0806 158.225 96.527 158.623 96.2397ZM257.093 96.2397C257.491 96.527 257.579 97.0806 257.29 97.4762L257.22 97.5713C256.93 97.9663 256.373 98.053 255.976 97.7649C255.578 97.4769 255.491 96.9231 255.781 96.5281L255.849 96.4357C256.138 96.0401 256.695 95.9524 257.093 96.2397ZM164.646 103.469C164.994 103.124 165.558 103.124 165.905 103.47L165.986 103.551C166.334 103.896 166.335 104.457 165.987 104.803C165.64 105.149 165.076 105.15 164.728 104.804L164.644 104.721C164.297 104.375 164.297 103.814 164.646 103.469ZM251.07 103.469C251.418 103.814 251.419 104.375 251.071 104.721L250.988 104.804C250.64 105.15 250.076 105.149 249.728 104.803C249.381 104.457 249.381 103.896 249.729 103.551L249.811 103.47C250.158 103.124 250.722 103.124 251.07 103.469ZM171.726 109.679C172.016 109.284 172.573 109.197 172.97 109.486L173.063 109.553C173.461 109.84 173.549 110.394 173.26 110.789C172.971 111.185 172.414 111.273 172.016 110.985L171.921 110.916C171.523 110.628 171.436 110.074 171.726 109.679ZM243.99 109.679C244.28 110.074 244.192 110.628 243.795 110.916L243.699 110.985C243.301 111.273 242.744 111.185 242.455 110.789C242.166 110.394 242.255 109.84 242.653 109.553L242.745 109.486C243.143 109.197 243.7 109.284 243.99 109.679ZM179.694 114.716C179.918 114.281 180.454 114.108 180.892 114.331L180.994 114.383C181.433 114.605 181.607 115.138 181.384 115.574C181.161 116.009 180.624 116.183 180.186 115.961L180.081 115.907C179.643 115.685 179.469 115.151 179.694 114.716ZM236.022 114.716C236.246 115.151 236.073 115.685 235.635 115.907L235.53 115.961C235.091 116.183 234.555 116.009 234.332 115.574C234.109 115.138 234.283 114.605 234.721 114.383L234.824 114.331C235.261 114.108 235.798 114.281 236.022 114.716ZM188.358 118.448C188.51 117.983 189.012 117.729 189.48 117.881L189.59 117.916C190.058 118.067 190.314 118.566 190.163 119.031C190.011 119.496 189.509 119.751 189.041 119.601L188.928 119.564C188.461 119.413 188.205 118.913 188.358 118.448ZM227.358 118.448C227.511 118.913 227.255 119.413 226.787 119.564L226.675 119.601C226.207 119.751 225.704 119.496 225.553 119.031C225.402 118.566 225.658 118.067 226.126 117.916L226.236 117.881C226.703 117.729 227.206 117.983 227.358 118.448ZM197.506 120.777C197.582 120.294 198.039 119.965 198.524 120.041L198.638 120.059C199.124 120.134 199.457 120.587 199.381 121.07C199.305 121.553 198.849 121.884 198.364 121.808L198.246 121.79C197.76 121.714 197.429 121.26 197.506 120.777ZM218.21 120.777C218.287 121.26 217.955 121.714 217.47 121.79L217.352 121.808C216.866 121.884 216.411 121.553 216.335 121.07C216.259 120.587 216.591 120.134 217.077 120.059L217.191 120.041C217.677 119.965 218.133 120.294 218.21 120.777ZM206.909 121.652C206.909 121.163 207.308 120.767 207.8 120.767H207.916C208.408 120.767 208.807 121.163 208.807 121.652C208.808 122.141 208.409 122.537 207.917 122.538H207.798C207.306 122.537 206.908 122.141 206.909 121.652Z" fill="white"/>
<path d="M209.837 2.04622C209.837 3.13268 208.951 4.01343 207.858 4.01343C206.765 4.01343 205.879 3.13268 205.879 2.04622C205.879 0.959762 206.765 0.0790126 207.858 0.0790127C208.951 0.0790128 209.837 0.959762 209.837 2.04622Z" fill="white"/>
<path d="M209.837 121.652C209.837 122.739 208.951 123.62 207.858 123.62C206.765 123.62 205.879 122.739 205.879 121.652C205.879 120.566 206.765 119.685 207.858 119.685C208.951 119.685 209.837 120.566 209.837 121.652Z" fill="white"/>
<path d="M268.021 63.8167C266.928 63.8167 266.042 62.9359 266.042 61.8494C266.042 60.763 266.928 59.8822 268.021 59.8822C269.114 59.8822 270 60.763 270 61.8494C270 62.9359 269.114 63.8167 268.021 63.8167Z" fill="white"/>
<path fill-rule="evenodd" clip-rule="evenodd" d="M225.145 24.9746H241.558L188.714 98.5424H172.574L225.145 24.9746ZM205.864 46.6525L190.396 24.9746H173.919L197.793 58.4769L205.864 46.6525ZM201.817 46.6944L197.735 52.6766L180.349 28.2795H188.678L201.817 46.6944ZM179.014 95.2374H187.003L235.099 28.2795H226.862L179.014 95.2374Z" fill="white"/>
<path fill-rule="evenodd" clip-rule="evenodd" d="M228.602 95.2128C228.696 95.3426 228.847 95.4194 229.007 95.4194H236.734L218.415 69.5617C218.215 69.28 217.797 69.2806 217.598 69.5629L214.067 74.5772C213.944 74.7519 213.945 74.9855 214.07 75.1585L228.602 95.2128ZM209.783 74.8966L227.049 98.7243H243.142L217.997 63.2327L209.783 74.8966Z" fill="white"/>
<path fill-rule="evenodd" clip-rule="evenodd" d="M56.4345 24.9746H42.3272V46.8648C38.2529 44.6983 33.5753 43.4664 28.601 43.4664C12.8081 43.4664 0.00537109 55.8849 0.00537109 71.204C0.00537109 86.5231 12.8081 98.9416 28.601 98.9416C33.5753 98.9416 38.2529 97.7096 42.3272 95.5431V98.2812H56.4345V24.9746ZM44.6462 71.0579C44.6462 79.7342 37.3951 86.7677 28.4504 86.7677C19.5057 86.7677 12.2546 79.7342 12.2546 71.0579C12.2546 62.3816 19.5057 55.3481 28.4504 55.3481C37.3951 55.3481 44.6462 62.3816 44.6462 71.0579ZM113.595 24.9746L61.137 98.2813H77.5829L129.99 24.9746H113.595ZM154.514 24.9746H168.621V98.2812H154.514V95.5431C150.44 97.7096 145.762 98.9416 140.788 98.9416C124.995 98.9416 112.192 86.5231 112.192 71.204C112.192 55.8849 124.995 43.4664 140.788 43.4664C145.762 43.4664 150.44 44.6983 154.514 46.8648V24.9746ZM140.637 86.7677C149.582 86.7677 156.833 79.7342 156.833 71.0579C156.833 62.3816 149.582 55.3481 140.637 55.3481C131.692 55.3481 124.441 62.3816 124.441 71.0579C124.441 79.7342 131.692 86.7677 140.637 86.7677ZM94.0543 47.2302L77.5958 24.9746H60.4655L84.9853 59.6671L94.0543 47.2302Z" fill="white"/>
</svg>
