<svg width="124" height="124" viewBox="0 0 124 124" fill="none" xmlns="http://www.w3.org/2000/svg">
<rect width="124" height="124" rx="62" fill="#1A1A27"/>
<path fill-rule="evenodd" clip-rule="evenodd" d="M75.9157 30.0923H89.738L45.2354 92.4207H31.6426L75.9157 30.0923ZM59.6778 48.4584L46.6514 30.0923H32.7754L52.8814 58.4763L59.6778 48.4584ZM56.2702 48.4938L52.8317 53.5621L38.1901 32.8923H45.2046L56.2702 48.4938ZM37.066 89.6207H43.7941L84.2983 32.8923H77.3613L37.066 89.6207Z" fill="white"/>
<path fill-rule="evenodd" clip-rule="evenodd" d="M78.953 89.7748H85.6751L69.9028 67.3781L66.4126 72.3642L78.953 89.7748ZM62.9785 72.3873L77.5191 92.5748H91.0715L69.8959 62.5054L62.9785 72.3873Z" fill="url(#paint0_linear_2377_19814)"/>
<path fill-rule="evenodd" clip-rule="evenodd" d="M62.1074 18.2925C62.1074 17.8783 61.7716 17.5425 61.3574 17.5425C60.9432 17.5425 60.6074 17.8783 60.6074 18.2925V18.34C60.6074 18.7542 60.9432 19.09 61.3574 19.09C61.7716 19.09 62.1074 18.7542 62.1074 18.34V18.2925ZM62.1074 25.9351C62.1074 25.5209 61.7716 25.1851 61.3574 25.1851C60.9432 25.1851 60.6074 25.5209 60.6074 25.9351V26.0301C60.6074 26.4443 60.9432 26.7801 61.3574 26.7801C61.7716 26.7801 62.1074 26.4443 62.1074 26.0301V25.9351ZM62.1074 33.6253C62.1074 33.2111 61.7716 32.8753 61.3574 32.8753C60.9432 32.8753 60.6074 33.2111 60.6074 33.6253V33.7202C60.6074 34.1344 60.9432 34.4702 61.3574 34.4702C61.7716 34.4702 62.1074 34.1344 62.1074 33.7202V33.6253ZM62.1074 41.3154C62.1074 40.9012 61.7716 40.5654 61.3574 40.5654C60.9432 40.5654 60.6074 40.9012 60.6074 41.3154V41.3629C60.6074 41.7771 60.9432 42.1129 61.3574 42.1129C61.7716 42.1129 62.1074 41.7771 62.1074 41.3629V41.3154ZM62.1074 79.2563C62.1074 78.8421 61.7716 78.5063 61.3574 78.5063C60.9432 78.5063 60.6074 78.8421 60.6074 79.2563V79.307C60.6074 79.7212 60.9432 80.057 61.3574 80.057C61.7716 80.057 62.1074 79.7212 62.1074 79.307V79.2563ZM62.1074 87.4122C62.1074 86.998 61.7716 86.6622 61.3574 86.6622C60.9432 86.6622 60.6074 86.998 60.6074 87.4122V87.5136C60.6074 87.9278 60.9432 88.2636 61.3574 88.2636C61.7716 88.2636 62.1074 87.9278 62.1074 87.5136V87.4122ZM62.1074 95.6188C62.1074 95.2046 61.7716 94.8688 61.3574 94.8688C60.9432 94.8688 60.6074 95.2046 60.6074 95.6188V95.7201C60.6074 96.1343 60.9432 96.4701 61.3574 96.4701C61.7716 96.4701 62.1074 96.1343 62.1074 95.7201V95.6188ZM62.1074 103.825C62.1074 103.411 61.7716 103.075 61.3574 103.075C60.9432 103.075 60.6074 103.411 60.6074 103.825V103.927C60.6074 104.341 60.9432 104.677 61.3574 104.677C61.7716 104.677 62.1074 104.341 62.1074 103.927V103.825ZM62.1074 112.032C62.1074 111.618 61.7716 111.282 61.3574 111.282C60.9432 111.282 60.6074 111.618 60.6074 112.032V112.083C60.6074 112.497 60.9432 112.833 61.3574 112.833C61.7716 112.833 62.1074 112.497 62.1074 112.083V112.032ZM112.815 61.3745C112.815 61.7887 112.48 62.1245 112.065 62.1245H112.02C111.606 62.1245 111.27 61.7887 111.27 61.3745C111.27 60.9603 111.606 60.6245 112.02 60.6245H112.065C112.48 60.6245 112.815 60.9603 112.815 61.3745ZM105.51 61.3745C105.51 61.7887 105.174 62.1245 104.76 62.1245H104.669C104.255 62.1245 103.919 61.7887 103.919 61.3745C103.919 60.9603 104.255 60.6245 104.669 60.6245H104.76C105.174 60.6245 105.51 60.9603 105.51 61.3745ZM98.1584 61.3745C98.1584 61.7887 97.8226 62.1245 97.4084 62.1245H97.3177C96.9035 62.1245 96.5677 61.7887 96.5677 61.3745C96.5677 60.9603 96.9035 60.6245 97.3177 60.6245H97.4084C97.8226 60.6245 98.1584 60.9603 98.1584 61.3745ZM90.8073 61.3745C90.8073 61.7887 90.4715 62.1245 90.0573 62.1245H89.9665C89.5523 62.1245 89.2165 61.7887 89.2165 61.3745C89.2165 60.9603 89.5523 60.6245 89.9665 60.6245H90.0573C90.4715 60.6245 90.8073 60.9603 90.8073 61.3745ZM83.4561 61.3745C83.4561 61.7887 83.1203 62.1245 82.7061 62.1245H82.6153C82.2011 62.1245 81.8653 61.7887 81.8653 61.3745C81.8653 60.9603 82.2011 60.6245 82.6153 60.6245H82.7061C83.1203 60.6245 83.4561 60.9603 83.4561 61.3745ZM76.1049 61.3745C76.1049 61.7887 75.7691 62.1245 75.3549 62.1245H75.3095C74.8953 62.1245 74.5595 61.7887 74.5595 61.3745C74.5595 60.9603 74.8953 60.6245 75.3095 60.6245H75.3549C75.7691 60.6245 76.1049 60.9603 76.1049 61.3745ZM47.726 62.1245C48.1403 62.1245 48.476 61.7887 48.476 61.3745C48.476 60.9603 48.1403 60.6245 47.726 60.6245H47.6803C47.266 60.6245 46.9303 60.9603 46.9303 61.3745C46.9303 61.7887 47.266 62.1245 47.6803 62.1245H47.726ZM40.3564 62.1245C40.7706 62.1245 41.1064 61.7887 41.1064 61.3745C41.1064 60.9603 40.7706 60.6245 40.3564 60.6245H40.2648C39.8506 60.6245 39.5148 60.9603 39.5148 61.3745C39.5148 61.7887 39.8506 62.1245 40.2648 62.1245H40.3564ZM32.941 62.1245C33.3552 62.1245 33.691 61.7887 33.691 61.3745C33.691 60.9603 33.3552 60.6245 32.941 60.6245H32.8494C32.4352 60.6245 32.0994 60.9603 32.0994 61.3745C32.0994 61.7887 32.4352 62.1245 32.8494 62.1245H32.941ZM25.5255 62.1245C25.9398 62.1245 26.2755 61.7887 26.2755 61.3745C26.2755 60.9603 25.9398 60.6245 25.5255 60.6245H25.434C25.0198 60.6245 24.684 60.9603 24.684 61.3745C24.684 61.7887 25.0198 62.1245 25.434 62.1245H25.5255ZM18.1101 62.1245C18.5243 62.1245 18.8601 61.7887 18.8601 61.3745C18.8601 60.9603 18.5243 60.6245 18.1101 60.6245H18.0186C17.6044 60.6245 17.2686 60.9603 17.2686 61.3745C17.2686 61.7887 17.6044 62.1245 18.0186 62.1245H18.1101ZM10.6947 62.1245C11.1089 62.1245 11.4447 61.7887 11.4447 61.3745C11.4447 60.9603 11.1089 60.6245 10.6947 60.6245H10.6489C10.2347 60.6245 9.89893 60.9603 9.89893 61.3745C9.89893 61.7887 10.2347 62.1245 10.6489 62.1245H10.6947Z" fill="#55555E"/>
<path fill-rule="evenodd" clip-rule="evenodd" d="M61.3069 9.9165H61.4072C61.8214 9.9169 62.1569 10.253 62.1565 10.6672C62.1561 11.0814 61.82 11.4169 61.4058 11.4165H61.3084C60.8942 11.4169 60.5581 11.0814 60.5577 10.6672C60.5573 10.253 60.8927 9.9169 61.3069 9.9165ZM54.2182 11.1599C54.2821 11.5691 54.0021 11.9527 53.5929 12.0166L53.4969 12.0317C53.0878 12.0964 52.7036 11.8172 52.6389 11.4081C52.5742 10.9989 52.8534 10.6148 53.2626 10.5501L53.3614 10.5346C53.7707 10.4707 54.1543 10.7506 54.2182 11.1599ZM68.496 11.1599C68.5599 10.7506 68.9435 10.4707 69.3527 10.5346L69.4516 10.5501C69.8607 10.6148 70.1399 10.9989 70.0752 11.4081C70.0105 11.8172 69.6264 12.0964 69.2173 12.0317L69.1213 12.0166C68.712 11.9527 68.4321 11.5691 68.496 11.1599ZM76.2591 12.8876C76.3866 12.4935 76.8095 12.2774 77.2036 12.4049L77.2985 12.4358C77.6924 12.5641 77.9076 12.9874 77.7793 13.3812C77.651 13.7751 77.2277 13.9903 76.8339 13.862L76.7417 13.8321C76.3476 13.7045 76.1315 13.2817 76.2591 12.8876ZM46.4551 12.8876C46.5826 13.2817 46.3666 13.7045 45.9725 13.8321L45.8803 13.862C45.4864 13.9903 45.0632 13.7751 44.9348 13.3812C44.8065 12.9874 45.0218 12.5641 45.4156 12.4358L45.5106 12.4049C45.9047 12.2774 46.3275 12.4935 46.4551 12.8876ZM83.6522 15.8166C83.8402 15.4475 84.2918 15.3006 84.6609 15.4886L84.7497 15.534C85.1184 15.7227 85.2644 16.1746 85.0757 16.5433C84.887 16.912 84.4351 17.058 84.0663 16.8693L83.9801 16.8253C83.611 16.6373 83.4642 16.1857 83.6522 15.8166ZM39.062 15.8166C39.25 16.1857 39.1031 16.6373 38.734 16.8253L38.6478 16.8693C38.2791 17.058 37.8272 16.9121 37.6385 16.5433C37.4498 16.1746 37.5957 15.7227 37.9644 15.534L38.0533 15.4886C38.4224 15.3007 38.874 15.4475 39.062 15.8166ZM32.2208 19.8701C32.4642 20.2053 32.3899 20.6743 32.0547 20.9177L31.9765 20.9747C31.6418 21.2187 31.1727 21.1453 30.9286 20.8106C30.6845 20.4759 30.758 20.0068 31.0927 19.7627L31.1733 19.704C31.5084 19.4606 31.9774 19.535 32.2208 19.8701ZM90.4933 19.8701C90.7367 19.535 91.2058 19.4606 91.5409 19.704L91.6215 19.7627C91.9562 20.0068 92.0296 20.4759 91.7856 20.8106C91.5415 21.1453 91.0723 21.2187 90.7377 20.9747L90.6594 20.9177C90.3243 20.6743 90.2499 20.2053 90.4933 19.8701ZM26.0959 24.9419C26.3885 25.235 26.3881 25.7099 26.0949 26.0025L26.0264 26.071C25.7338 26.3642 25.259 26.3646 24.9658 26.072C24.6726 25.7794 24.6722 25.3045 24.9648 25.0113L25.0353 24.9408C25.3284 24.6482 25.8033 24.6487 26.0959 24.9419ZM96.6182 24.9419C96.9108 24.6487 97.3857 24.6482 97.6789 24.9408L97.7494 25.0113C98.042 25.3045 98.0415 25.7794 97.7484 26.072C97.4552 26.3646 96.9803 26.3642 96.6877 26.071L96.6192 26.0025C96.3261 25.7099 96.3256 25.235 96.6182 24.9419ZM20.8345 30.9047C21.1692 31.1487 21.2426 31.6179 20.9986 31.9526L20.9416 32.0308C20.6982 32.366 20.2292 32.4403 19.8941 32.1969C19.5589 31.9535 19.4846 31.4845 19.728 31.1493L19.7866 31.0687C20.0307 30.7341 20.4998 30.6606 20.8345 30.9047ZM101.88 30.9047C102.214 30.6606 102.683 30.7341 102.928 31.0687L102.986 31.1493C103.23 31.4845 103.155 31.9535 102.82 32.1969C102.485 32.4403 102.016 32.366 101.773 32.0308L101.716 31.9526C101.472 31.6179 101.545 31.1487 101.88 30.9047ZM106.147 37.6146C106.516 37.4258 106.968 37.5718 107.156 37.9405L107.202 38.0293C107.39 38.3984 107.243 38.85 106.874 39.038C106.505 39.226 106.053 39.0792 105.865 38.7101L105.821 38.6239C105.632 38.2552 105.778 37.8033 106.147 37.6146ZM16.5672 37.6146C16.936 37.8033 17.0819 38.2552 16.8932 38.6239L16.8492 38.7101C16.6612 39.0792 16.2096 39.226 15.8405 39.038C15.4714 38.85 15.3246 38.3984 15.5126 38.0293L15.5579 37.9405C15.7466 37.5718 16.1985 37.4258 16.5672 37.6146ZM13.4052 44.9109C13.799 45.0392 14.0142 45.4625 13.8859 45.8564L13.856 45.9485C13.7285 46.3426 13.3056 46.5587 12.9115 46.4312C12.5174 46.3036 12.3013 45.8808 12.4289 45.4867L12.4597 45.3917C12.588 44.9978 13.0113 44.7826 13.4052 44.9109ZM109.309 44.9109C109.703 44.7826 110.126 44.9978 110.254 45.3917L110.285 45.4867C110.413 45.8808 110.197 46.3036 109.803 46.4312C109.409 46.5587 108.986 46.3426 108.858 45.9485L108.828 45.8564C108.7 45.4625 108.915 45.0392 109.309 44.9109ZM11.432 52.615C11.8411 52.6797 12.1203 53.0638 12.0556 53.473L12.0405 53.5689C11.9766 53.9782 11.5931 54.2581 11.1838 54.1942C10.7746 54.1303 10.4946 53.7467 10.5585 53.3375L10.574 53.2386C10.6387 52.8295 11.0229 52.5503 11.432 52.615ZM111.282 52.615C111.691 52.5503 112.075 52.8295 112.14 53.2387L112.156 53.3375C112.22 53.7468 111.94 54.1303 111.53 54.1942C111.121 54.2581 110.738 53.9782 110.674 53.5689L110.659 53.473C110.594 53.0638 110.873 52.6797 111.282 52.615ZM10.6911 60.5337C11.1054 60.5341 11.4408 60.8702 11.4404 61.2845V61.3818C11.4408 61.7961 11.1054 62.1322 10.6911 62.1326C10.2769 62.133 9.94083 61.7975 9.94043 61.3833V61.283C9.94083 60.8688 10.2769 60.5333 10.6911 60.5337ZM112.023 60.5337C112.437 60.5333 112.773 60.8688 112.774 61.283V61.3833C112.773 61.7975 112.437 62.133 112.023 62.1326C111.609 62.1322 111.273 61.7961 111.274 61.3818V61.2845C111.273 60.8702 111.609 60.5341 112.023 60.5337ZM11.1838 68.4721C11.5931 68.4082 11.9766 68.6881 12.0405 69.0974L12.0556 69.1933C12.1203 69.6025 11.8411 69.9866 11.432 70.0513C11.0229 70.116 10.6387 69.8368 10.574 69.4276L10.5585 69.3288C10.4946 68.9195 10.7746 68.536 11.1838 68.4721ZM111.53 68.4721C111.94 68.536 112.22 68.9195 112.156 69.3288L112.14 69.4277C112.075 69.8368 111.691 70.116 111.282 70.0513C110.873 69.9866 110.594 69.6025 110.659 69.1933L110.674 69.0974C110.738 68.6881 111.121 68.4082 111.53 68.4721ZM12.9115 76.2351C13.3056 76.1076 13.7285 76.3237 13.856 76.7178L13.8859 76.8099C14.0142 77.2038 13.799 77.6271 13.4052 77.7554C13.0113 77.8837 12.588 77.6684 12.4597 77.2746L12.4289 77.1796C12.3013 76.7855 12.5174 76.3627 12.9115 76.2351ZM109.803 76.2351C110.197 76.3627 110.413 76.7855 110.285 77.1796L110.254 77.2746C110.126 77.6684 109.703 77.8837 109.309 77.7554C108.915 77.6271 108.7 77.2038 108.828 76.8099L108.858 76.7178C108.986 76.3237 109.409 76.1076 109.803 76.2351ZM15.8405 83.6283C16.2096 83.4403 16.6612 83.5871 16.8492 83.9562L16.8932 84.0424C17.0819 84.4111 16.936 84.863 16.5672 85.0517C16.1985 85.2404 15.7466 85.0945 15.5579 84.7258L15.5126 84.637C15.3246 84.2679 15.4714 83.8162 15.8405 83.6283ZM106.874 83.6283C107.243 83.8162 107.39 84.2679 107.202 84.6369L107.156 84.7258C106.968 85.0945 106.516 85.2404 106.147 85.0517C105.778 84.863 105.632 84.4111 105.821 84.0424L105.865 83.9562C106.053 83.5871 106.505 83.4403 106.874 83.6283ZM19.8941 90.4694C20.2292 90.226 20.6982 90.3003 20.9416 90.6355L20.9986 90.7137C21.2426 91.0484 21.1692 91.5176 20.8345 91.7616C20.4998 92.0057 20.0307 91.9322 19.7866 91.5976L19.728 91.517C19.4845 91.1818 19.5589 90.7128 19.8941 90.4694ZM102.82 90.4694C103.155 90.7128 103.23 91.1818 102.986 91.517L102.928 91.5976C102.683 91.9322 102.214 92.0057 101.88 91.7616C101.545 91.5176 101.472 91.0484 101.716 90.7137L101.773 90.6355C102.016 90.3003 102.485 90.226 102.82 90.4694ZM24.9658 96.5943C25.259 96.3017 25.7338 96.3021 26.0264 96.5953L26.0949 96.6638C26.3881 96.9564 26.3885 97.4313 26.0959 97.7244C25.8033 98.0176 25.3284 98.0181 25.0353 97.7255L24.9648 97.655C24.6722 97.3618 24.6726 96.8869 24.9658 96.5943ZM97.7484 96.5943C98.0415 96.8869 98.042 97.3618 97.7494 97.655L97.6789 97.7255C97.3857 98.0181 96.9108 98.0176 96.6182 97.7244C96.3256 97.4313 96.3261 96.9564 96.6192 96.6638L96.6877 96.5953C96.9803 96.3021 97.4552 96.3017 97.7484 96.5943ZM30.9286 101.856C31.1727 101.521 31.6418 101.448 31.9765 101.692L32.0547 101.749C32.3899 101.992 32.4642 102.461 32.2208 102.796C31.9774 103.131 31.5084 103.206 31.1732 102.962L31.0927 102.904C30.758 102.66 30.6845 102.19 30.9286 101.856ZM91.7856 101.856C92.0296 102.19 91.9562 102.66 91.6215 102.904L91.5409 102.962C91.2057 103.206 90.7367 103.131 90.4933 102.796C90.2499 102.461 90.3243 101.992 90.6594 101.749L90.7377 101.692C91.0723 101.448 91.5415 101.521 91.7856 101.856ZM37.6385 106.123C37.8272 105.754 38.2791 105.608 38.6478 105.797L38.734 105.841C39.1031 106.029 39.25 106.481 39.062 106.85C38.874 107.219 38.4224 107.366 38.0533 107.178L37.9644 107.132C37.5957 106.944 37.4498 106.492 37.6385 106.123ZM85.0757 106.123C85.2644 106.492 85.1184 106.944 84.7497 107.132L84.6609 107.178C84.2918 107.366 83.8402 107.219 83.6522 106.85C83.4642 106.481 83.611 106.029 83.9801 105.841L84.0663 105.797C84.4351 105.608 84.887 105.754 85.0757 106.123ZM44.9348 109.285C45.0632 108.891 45.4864 108.676 45.8803 108.804L45.9725 108.834C46.3666 108.962 46.5826 109.385 46.4551 109.779C46.3276 110.173 45.9047 110.389 45.5106 110.261L45.4156 110.231C45.0218 110.102 44.8065 109.679 44.9348 109.285ZM77.7793 109.285C77.9076 109.679 77.6924 110.102 77.2985 110.231L77.2036 110.261C76.8095 110.389 76.3866 110.173 76.2591 109.779C76.1315 109.385 76.3476 108.962 76.7417 108.834L76.8339 108.804C77.2277 108.676 77.651 108.891 77.7793 109.285ZM52.6389 111.258C52.7036 110.849 53.0878 110.57 53.4969 110.635L53.5928 110.65C54.0021 110.714 54.2821 111.097 54.2182 111.506C54.1543 111.916 53.7707 112.196 53.3614 112.132L53.2626 112.116C52.8534 112.051 52.5742 111.667 52.6389 111.258ZM70.0752 111.258C70.1399 111.667 69.8607 112.051 69.4516 112.116L69.3527 112.132C68.9435 112.196 68.5599 111.916 68.496 111.506C68.4321 111.097 68.712 110.714 69.1213 110.65L69.2173 110.635C69.6264 110.57 70.0105 110.849 70.0752 111.258ZM60.5577 111.999C60.5581 111.585 60.8942 111.249 61.3084 111.25H61.4058C61.82 111.249 62.1561 111.585 62.1565 111.999C62.1569 112.413 61.8214 112.749 61.4072 112.75H61.3069C60.8927 112.749 60.5573 112.413 60.5577 111.999Z" fill="white"/>
<path d="M63.0239 112C63.0239 112.92 62.2777 113.667 61.3573 113.667C60.4368 113.667 59.6906 112.92 59.6906 112C59.6906 111.079 60.4368 110.333 61.3573 110.333C62.2777 110.333 63.0239 111.079 63.0239 112Z" fill="#6966FF"/>
<path d="M112.024 63C111.103 63 110.357 62.2538 110.357 61.3333C110.357 60.4129 111.103 59.6667 112.024 59.6667C112.944 59.6667 113.69 60.4129 113.69 61.3333C113.69 62.2538 112.944 63 112.024 63Z" fill="#6966FF"/>
<path d="M63.0239 10.6663C63.0239 11.5868 62.2777 12.333 61.3573 12.333C60.4368 12.333 59.6906 11.5868 59.6906 10.6663C59.6906 9.74587 60.4368 8.99967 61.3573 8.99967C62.2777 8.99967 63.0239 9.74587 63.0239 10.6663Z" fill="#6966FF"/>
<path d="M10.6906 63C9.77012 63 9.02393 62.2538 9.02393 61.3333C9.02393 60.4129 9.77012 59.6667 10.6906 59.6667C11.6111 59.6667 12.3573 60.4129 12.3573 61.3333C12.3573 62.2538 11.6111 63 10.6906 63Z" fill="#6966FF"/>
<defs>
<linearGradient id="paint0_linear_2377_19814" x1="80.5725" y1="87.842" x2="58.1743" y2="57.0666" gradientUnits="userSpaceOnUse">
<stop stop-color="#6966FF"/>
<stop offset="1" stop-color="#6966FF" stop-opacity="0.36"/>
</linearGradient>
</defs>
</svg>
