<svg width="124" height="124" viewBox="0 0 124 124" fill="none" xmlns="http://www.w3.org/2000/svg">
<rect width="124" height="124" rx="62" fill="white"/>
<path fill-rule="evenodd" clip-rule="evenodd" d="M76.4157 30.5923H90.238L45.7354 92.9207H32.1426L76.4157 30.5923ZM60.1778 48.9584L47.1514 30.5923H33.2754L53.3814 58.9763L60.1778 48.9584ZM56.7702 48.9938L53.3317 54.0621L38.6901 33.3923H45.7046L56.7702 48.9938ZM37.566 90.1207H44.2941L84.7983 33.3923H77.8613L37.566 90.1207Z" fill="black"/>
<path fill-rule="evenodd" clip-rule="evenodd" d="M79.453 90.2748H86.1751L70.4028 67.8781L66.9126 72.8642L79.453 90.2748ZM63.4785 72.8873L78.0191 93.0748H91.5715L70.3959 63.0054L63.4785 72.8873Z" fill="black"/>
<path fill-rule="evenodd" clip-rule="evenodd" d="M62.6074 18.7925C62.6074 18.3783 62.2716 18.0425 61.8574 18.0425C61.4432 18.0425 61.1074 18.3783 61.1074 18.7925V18.84C61.1074 19.2542 61.4432 19.59 61.8574 19.59C62.2716 19.59 62.6074 19.2542 62.6074 18.84V18.7925ZM62.6074 26.4351C62.6074 26.0209 62.2716 25.6851 61.8574 25.6851C61.4432 25.6851 61.1074 26.0209 61.1074 26.4351V26.5301C61.1074 26.9443 61.4432 27.2801 61.8574 27.2801C62.2716 27.2801 62.6074 26.9443 62.6074 26.5301V26.4351ZM62.6074 34.1253C62.6074 33.7111 62.2716 33.3753 61.8574 33.3753C61.4432 33.3753 61.1074 33.7111 61.1074 34.1253V34.2202C61.1074 34.6344 61.4432 34.9702 61.8574 34.9702C62.2716 34.9702 62.6074 34.6344 62.6074 34.2202V34.1253ZM62.6074 41.8154C62.6074 41.4012 62.2716 41.0654 61.8574 41.0654C61.4432 41.0654 61.1074 41.4012 61.1074 41.8154V41.8629C61.1074 42.2771 61.4432 42.6129 61.8574 42.6129C62.2716 42.6129 62.6074 42.2771 62.6074 41.8629V41.8154ZM62.6074 79.7563C62.6074 79.3421 62.2716 79.0063 61.8574 79.0063C61.4432 79.0063 61.1074 79.3421 61.1074 79.7563V79.807C61.1074 80.2212 61.4432 80.557 61.8574 80.557C62.2716 80.557 62.6074 80.2212 62.6074 79.807V79.7563ZM62.6074 87.9122C62.6074 87.498 62.2716 87.1622 61.8574 87.1622C61.4432 87.1622 61.1074 87.498 61.1074 87.9122V88.0136C61.1074 88.4278 61.4432 88.7636 61.8574 88.7636C62.2716 88.7636 62.6074 88.4278 62.6074 88.0136V87.9122ZM62.6074 96.1188C62.6074 95.7046 62.2716 95.3688 61.8574 95.3688C61.4432 95.3688 61.1074 95.7046 61.1074 96.1188V96.2201C61.1074 96.6343 61.4432 96.9701 61.8574 96.9701C62.2716 96.9701 62.6074 96.6343 62.6074 96.2201V96.1188ZM62.6074 104.325C62.6074 103.911 62.2716 103.575 61.8574 103.575C61.4432 103.575 61.1074 103.911 61.1074 104.325V104.427C61.1074 104.841 61.4432 105.177 61.8574 105.177C62.2716 105.177 62.6074 104.841 62.6074 104.427V104.325ZM62.6074 112.532C62.6074 112.118 62.2716 111.782 61.8574 111.782C61.4432 111.782 61.1074 112.118 61.1074 112.532V112.583C61.1074 112.997 61.4432 113.333 61.8574 113.333C62.2716 113.333 62.6074 112.997 62.6074 112.583V112.532ZM113.315 61.8745C113.315 62.2887 112.98 62.6245 112.565 62.6245H112.52C112.106 62.6245 111.77 62.2887 111.77 61.8745C111.77 61.4603 112.106 61.1245 112.52 61.1245H112.565C112.98 61.1245 113.315 61.4603 113.315 61.8745ZM106.01 61.8745C106.01 62.2887 105.674 62.6245 105.26 62.6245H105.169C104.755 62.6245 104.419 62.2887 104.419 61.8745C104.419 61.4603 104.755 61.1245 105.169 61.1245H105.26C105.674 61.1245 106.01 61.4603 106.01 61.8745ZM98.6584 61.8745C98.6584 62.2887 98.3226 62.6245 97.9084 62.6245H97.8177C97.4035 62.6245 97.0677 62.2887 97.0677 61.8745C97.0677 61.4603 97.4035 61.1245 97.8177 61.1245H97.9084C98.3226 61.1245 98.6584 61.4603 98.6584 61.8745ZM91.3073 61.8745C91.3073 62.2887 90.9715 62.6245 90.5573 62.6245H90.4665C90.0523 62.6245 89.7165 62.2887 89.7165 61.8745C89.7165 61.4603 90.0523 61.1245 90.4665 61.1245H90.5573C90.9715 61.1245 91.3073 61.4603 91.3073 61.8745ZM83.9561 61.8745C83.9561 62.2887 83.6203 62.6245 83.2061 62.6245H83.1153C82.7011 62.6245 82.3653 62.2887 82.3653 61.8745C82.3653 61.4603 82.7011 61.1245 83.1153 61.1245H83.2061C83.6203 61.1245 83.9561 61.4603 83.9561 61.8745ZM76.6049 61.8745C76.6049 62.2887 76.2691 62.6245 75.8549 62.6245H75.8095C75.3953 62.6245 75.0595 62.2887 75.0595 61.8745C75.0595 61.4603 75.3953 61.1245 75.8095 61.1245H75.8549C76.2691 61.1245 76.6049 61.4603 76.6049 61.8745ZM48.226 62.6245C48.6403 62.6245 48.976 62.2887 48.976 61.8745C48.976 61.4603 48.6403 61.1245 48.226 61.1245H48.1803C47.766 61.1245 47.4303 61.4603 47.4303 61.8745C47.4303 62.2887 47.766 62.6245 48.1803 62.6245H48.226ZM40.8564 62.6245C41.2706 62.6245 41.6064 62.2887 41.6064 61.8745C41.6064 61.4603 41.2706 61.1245 40.8564 61.1245H40.7648C40.3506 61.1245 40.0148 61.4603 40.0148 61.8745C40.0148 62.2887 40.3506 62.6245 40.7648 62.6245H40.8564ZM33.441 62.6245C33.8552 62.6245 34.191 62.2887 34.191 61.8745C34.191 61.4603 33.8552 61.1245 33.441 61.1245H33.3494C32.9352 61.1245 32.5994 61.4603 32.5994 61.8745C32.5994 62.2887 32.9352 62.6245 33.3494 62.6245H33.441ZM26.0255 62.6245C26.4398 62.6245 26.7755 62.2887 26.7755 61.8745C26.7755 61.4603 26.4398 61.1245 26.0255 61.1245H25.934C25.5198 61.1245 25.184 61.4603 25.184 61.8745C25.184 62.2887 25.5198 62.6245 25.934 62.6245H26.0255ZM18.6101 62.6245C19.0243 62.6245 19.3601 62.2887 19.3601 61.8745C19.3601 61.4603 19.0243 61.1245 18.6101 61.1245H18.5186C18.1044 61.1245 17.7686 61.4603 17.7686 61.8745C17.7686 62.2887 18.1044 62.6245 18.5186 62.6245H18.6101ZM11.1947 62.6245C11.6089 62.6245 11.9447 62.2887 11.9447 61.8745C11.9447 61.4603 11.6089 61.1245 11.1947 61.1245H11.1489C10.7347 61.1245 10.3989 61.4603 10.3989 61.8745C10.3989 62.2887 10.7347 62.6245 11.1489 62.6245H11.1947Z" fill="black" fill-opacity="0.3"/>
<path fill-rule="evenodd" clip-rule="evenodd" d="M61.8069 10.4165H61.9072C62.3214 10.4169 62.6569 10.753 62.6565 11.1672C62.6561 11.5814 62.32 11.9169 61.9058 11.9165H61.8084C61.3942 11.9169 61.0581 11.5814 61.0577 11.1672C61.0573 10.753 61.3927 10.4169 61.8069 10.4165ZM54.7182 11.6599C54.7821 12.0691 54.5021 12.4527 54.0929 12.5166L53.9969 12.5317C53.5878 12.5964 53.2036 12.3172 53.1389 11.9081C53.0742 11.4989 53.3534 11.1148 53.7626 11.0501L53.8614 11.0346C54.2707 10.9707 54.6543 11.2506 54.7182 11.6599ZM68.996 11.6599C69.0599 11.2506 69.4435 10.9707 69.8527 11.0346L69.9516 11.0501C70.3607 11.1148 70.6399 11.4989 70.5752 11.9081C70.5105 12.3172 70.1264 12.5964 69.7173 12.5317L69.6213 12.5166C69.212 12.4527 68.9321 12.0691 68.996 11.6599ZM76.7591 13.3876C76.8866 12.9935 77.3095 12.7774 77.7036 12.9049L77.7985 12.9358C78.1924 13.0641 78.4076 13.4874 78.2793 13.8812C78.151 14.2751 77.7277 14.4903 77.3339 14.362L77.2417 14.3321C76.8476 14.2045 76.6315 13.7817 76.7591 13.3876ZM46.9551 13.3876C47.0826 13.7817 46.8666 14.2045 46.4725 14.3321L46.3803 14.362C45.9864 14.4903 45.5632 14.2751 45.4348 13.8812C45.3065 13.4874 45.5218 13.0641 45.9156 12.9358L46.0106 12.9049C46.4047 12.7774 46.8275 12.9935 46.9551 13.3876ZM84.1522 16.3166C84.3402 15.9475 84.7918 15.8006 85.1609 15.9886L85.2497 16.034C85.6184 16.2227 85.7644 16.6746 85.5757 17.0433C85.387 17.412 84.9351 17.558 84.5663 17.3693L84.4801 17.3253C84.111 17.1373 83.9642 16.6857 84.1522 16.3166ZM39.562 16.3166C39.75 16.6857 39.6031 17.1373 39.234 17.3253L39.1478 17.3693C38.7791 17.558 38.3272 17.4121 38.1385 17.0433C37.9498 16.6746 38.0957 16.2227 38.4644 16.034L38.5533 15.9886C38.9224 15.8007 39.374 15.9475 39.562 16.3166ZM32.7208 20.3701C32.9642 20.7053 32.8899 21.1743 32.5547 21.4177L32.4765 21.4747C32.1418 21.7187 31.6727 21.6453 31.4286 21.3106C31.1845 20.9759 31.258 20.5068 31.5927 20.2627L31.6733 20.204C32.0084 19.9606 32.4774 20.035 32.7208 20.3701ZM90.9933 20.3701C91.2367 20.035 91.7058 19.9606 92.0409 20.204L92.1215 20.2627C92.4562 20.5068 92.5296 20.9759 92.2856 21.3106C92.0415 21.6453 91.5723 21.7187 91.2377 21.4747L91.1594 21.4177C90.8243 21.1743 90.7499 20.7053 90.9933 20.3701ZM26.5959 25.4419C26.8885 25.735 26.8881 26.2099 26.5949 26.5025L26.5264 26.571C26.2338 26.8642 25.759 26.8646 25.4658 26.572C25.1726 26.2794 25.1722 25.8045 25.4648 25.5113L25.5353 25.4408C25.8284 25.1482 26.3033 25.1487 26.5959 25.4419ZM97.1182 25.4419C97.4108 25.1487 97.8857 25.1482 98.1789 25.4408L98.2494 25.5113C98.542 25.8045 98.5415 26.2794 98.2484 26.572C97.9552 26.8646 97.4803 26.8642 97.1877 26.571L97.1192 26.5025C96.8261 26.2099 96.8256 25.735 97.1182 25.4419ZM21.3345 31.4047C21.6692 31.6487 21.7426 32.1179 21.4986 32.4526L21.4416 32.5308C21.1982 32.866 20.7292 32.9403 20.3941 32.6969C20.0589 32.4535 19.9846 31.9845 20.228 31.6493L20.2866 31.5687C20.5307 31.2341 20.9998 31.1606 21.3345 31.4047ZM102.38 31.4047C102.714 31.1606 103.183 31.2341 103.428 31.5687L103.486 31.6493C103.73 31.9845 103.655 32.4535 103.32 32.6969C102.985 32.9403 102.516 32.866 102.273 32.5308L102.216 32.4526C101.972 32.1179 102.045 31.6487 102.38 31.4047ZM106.647 38.1146C107.016 37.9258 107.468 38.0718 107.656 38.4405L107.702 38.5293C107.89 38.8984 107.743 39.35 107.374 39.538C107.005 39.726 106.553 39.5792 106.365 39.2101L106.321 39.1239C106.132 38.7552 106.278 38.3033 106.647 38.1146ZM17.0672 38.1146C17.436 38.3033 17.5819 38.7552 17.3932 39.1239L17.3492 39.2101C17.1612 39.5792 16.7096 39.726 16.3405 39.538C15.9714 39.35 15.8246 38.8984 16.0126 38.5293L16.0579 38.4405C16.2466 38.0718 16.6985 37.9258 17.0672 38.1146ZM13.9052 45.4109C14.299 45.5392 14.5142 45.9625 14.3859 46.3564L14.356 46.4485C14.2285 46.8426 13.8056 47.0587 13.4115 46.9312C13.0174 46.8036 12.8013 46.3808 12.9289 45.9867L12.9597 45.8917C13.088 45.4978 13.5113 45.2826 13.9052 45.4109ZM109.809 45.4109C110.203 45.2826 110.626 45.4978 110.754 45.8917L110.785 45.9867C110.913 46.3808 110.697 46.8036 110.303 46.9312C109.909 47.0587 109.486 46.8426 109.358 46.4485L109.328 46.3564C109.2 45.9625 109.415 45.5392 109.809 45.4109ZM11.932 53.115C12.3411 53.1797 12.6203 53.5638 12.5556 53.973L12.5405 54.0689C12.4766 54.4782 12.0931 54.7581 11.6838 54.6942C11.2746 54.6303 10.9946 54.2467 11.0585 53.8375L11.074 53.7386C11.1387 53.3295 11.5229 53.0503 11.932 53.115ZM111.782 53.115C112.191 53.0503 112.575 53.3295 112.64 53.7387L112.656 53.8375C112.72 54.2468 112.44 54.6303 112.03 54.6942C111.621 54.7581 111.238 54.4782 111.174 54.0689L111.159 53.973C111.094 53.5638 111.373 53.1797 111.782 53.115ZM11.1911 61.0337C11.6054 61.0341 11.9408 61.3702 11.9404 61.7845V61.8818C11.9408 62.2961 11.6054 62.6322 11.1911 62.6326C10.7769 62.633 10.4408 62.2975 10.4404 61.8833V61.783C10.4408 61.3688 10.7769 61.0333 11.1911 61.0337ZM112.523 61.0337C112.937 61.0333 113.273 61.3688 113.274 61.783V61.8833C113.273 62.2975 112.937 62.633 112.523 62.6326C112.109 62.6322 111.773 62.2961 111.774 61.8818V61.7845C111.773 61.3702 112.109 61.0341 112.523 61.0337ZM11.6838 68.9721C12.0931 68.9082 12.4766 69.1881 12.5405 69.5974L12.5556 69.6933C12.6203 70.1025 12.3411 70.4866 11.932 70.5513C11.5229 70.616 11.1387 70.3368 11.074 69.9276L11.0585 69.8288C10.9946 69.4195 11.2746 69.036 11.6838 68.9721ZM112.03 68.9721C112.44 69.036 112.72 69.4195 112.656 69.8288L112.64 69.9277C112.575 70.3368 112.191 70.616 111.782 70.5513C111.373 70.4866 111.094 70.1025 111.159 69.6933L111.174 69.5974C111.238 69.1881 111.621 68.9082 112.03 68.9721ZM13.4115 76.7351C13.8056 76.6076 14.2285 76.8237 14.356 77.2178L14.3859 77.3099C14.5142 77.7038 14.299 78.1271 13.9052 78.2554C13.5113 78.3837 13.088 78.1684 12.9597 77.7746L12.9289 77.6796C12.8013 77.2855 13.0174 76.8627 13.4115 76.7351ZM110.303 76.7351C110.697 76.8627 110.913 77.2855 110.785 77.6796L110.754 77.7746C110.626 78.1684 110.203 78.3837 109.809 78.2554C109.415 78.1271 109.2 77.7038 109.328 77.3099L109.358 77.2178C109.486 76.8237 109.909 76.6076 110.303 76.7351ZM16.3405 84.1283C16.7096 83.9403 17.1612 84.0871 17.3492 84.4562L17.3932 84.5424C17.5819 84.9111 17.436 85.363 17.0672 85.5517C16.6985 85.7404 16.2466 85.5945 16.0579 85.2258L16.0126 85.137C15.8246 84.7679 15.9714 84.3162 16.3405 84.1283ZM107.374 84.1283C107.743 84.3162 107.89 84.7679 107.702 85.1369L107.656 85.2258C107.468 85.5945 107.016 85.7404 106.647 85.5517C106.278 85.363 106.132 84.9111 106.321 84.5424L106.365 84.4562C106.553 84.0871 107.005 83.9403 107.374 84.1283ZM20.3941 90.9694C20.7292 90.726 21.1982 90.8003 21.4416 91.1355L21.4986 91.2137C21.7426 91.5484 21.6692 92.0176 21.3345 92.2616C20.9998 92.5057 20.5307 92.4322 20.2866 92.0976L20.228 92.017C19.9845 91.6818 20.0589 91.2128 20.3941 90.9694ZM103.32 90.9694C103.655 91.2128 103.73 91.6818 103.486 92.017L103.428 92.0976C103.183 92.4322 102.714 92.5057 102.38 92.2616C102.045 92.0176 101.972 91.5484 102.216 91.2137L102.273 91.1355C102.516 90.8003 102.985 90.726 103.32 90.9694ZM25.4658 97.0943C25.759 96.8017 26.2338 96.8021 26.5264 97.0953L26.5949 97.1638C26.8881 97.4564 26.8885 97.9313 26.5959 98.2244C26.3033 98.5176 25.8284 98.5181 25.5353 98.2255L25.4648 98.155C25.1722 97.8618 25.1726 97.3869 25.4658 97.0943ZM98.2484 97.0943C98.5415 97.3869 98.542 97.8618 98.2494 98.155L98.1789 98.2255C97.8857 98.5181 97.4108 98.5176 97.1182 98.2244C96.8256 97.9313 96.8261 97.4564 97.1192 97.1638L97.1877 97.0953C97.4803 96.8021 97.9552 96.8017 98.2484 97.0943ZM31.4286 102.356C31.6727 102.021 32.1418 101.948 32.4765 102.192L32.5547 102.249C32.8899 102.492 32.9642 102.961 32.7208 103.296C32.4774 103.631 32.0084 103.706 31.6732 103.462L31.5927 103.404C31.258 103.16 31.1845 102.69 31.4286 102.356ZM92.2856 102.356C92.5296 102.69 92.4562 103.16 92.1215 103.404L92.0409 103.462C91.7057 103.706 91.2367 103.631 90.9933 103.296C90.7499 102.961 90.8243 102.492 91.1594 102.249L91.2377 102.192C91.5723 101.948 92.0415 102.021 92.2856 102.356ZM38.1385 106.623C38.3272 106.254 38.7791 106.108 39.1478 106.297L39.234 106.341C39.6031 106.529 39.75 106.981 39.562 107.35C39.374 107.719 38.9224 107.866 38.5533 107.678L38.4644 107.632C38.0957 107.444 37.9498 106.992 38.1385 106.623ZM85.5757 106.623C85.7644 106.992 85.6184 107.444 85.2497 107.632L85.1609 107.678C84.7918 107.866 84.3402 107.719 84.1522 107.35C83.9642 106.981 84.111 106.529 84.4801 106.341L84.5663 106.297C84.9351 106.108 85.387 106.254 85.5757 106.623ZM45.4348 109.785C45.5632 109.391 45.9864 109.176 46.3803 109.304L46.4725 109.334C46.8666 109.462 47.0826 109.885 46.9551 110.279C46.8276 110.673 46.4047 110.889 46.0106 110.761L45.9156 110.731C45.5218 110.602 45.3065 110.179 45.4348 109.785ZM78.2793 109.785C78.4076 110.179 78.1924 110.602 77.7985 110.731L77.7036 110.761C77.3095 110.889 76.8866 110.673 76.7591 110.279C76.6315 109.885 76.8476 109.462 77.2417 109.334L77.3339 109.304C77.7277 109.176 78.151 109.391 78.2793 109.785ZM53.1389 111.758C53.2036 111.349 53.5878 111.07 53.9969 111.135L54.0928 111.15C54.5021 111.214 54.7821 111.597 54.7182 112.006C54.6543 112.416 54.2707 112.696 53.8614 112.632L53.7626 112.616C53.3534 112.551 53.0742 112.167 53.1389 111.758ZM70.5752 111.758C70.6399 112.167 70.3607 112.551 69.9516 112.616L69.8527 112.632C69.4435 112.696 69.0599 112.416 68.996 112.006C68.9321 111.597 69.212 111.214 69.6213 111.15L69.7173 111.135C70.1264 111.07 70.5105 111.349 70.5752 111.758ZM61.0577 112.499C61.0581 112.085 61.3942 111.749 61.8084 111.75H61.9058C62.32 111.749 62.6561 112.085 62.6565 112.499C62.6569 112.913 62.3214 113.249 61.9072 113.25H61.8069C61.3927 113.249 61.0573 112.913 61.0577 112.499Z" fill="black"/>
<path d="M63.5239 112.5C63.5239 113.42 62.7777 114.167 61.8573 114.167C60.9368 114.167 60.1906 113.42 60.1906 112.5C60.1906 111.579 60.9368 110.833 61.8573 110.833C62.7777 110.833 63.5239 111.579 63.5239 112.5Z" fill="black"/>
<path d="M112.524 63.5C111.603 63.5 110.857 62.7538 110.857 61.8333C110.857 60.9129 111.603 60.1667 112.524 60.1667C113.444 60.1667 114.19 60.9129 114.19 61.8333C114.19 62.7538 113.444 63.5 112.524 63.5Z" fill="black"/>
<path d="M63.5239 11.1663C63.5239 12.0868 62.7777 12.833 61.8573 12.833C60.9368 12.833 60.1906 12.0868 60.1906 11.1663C60.1906 10.2459 60.9368 9.49967 61.8573 9.49967C62.7777 9.49967 63.5239 10.2459 63.5239 11.1663Z" fill="black"/>
<path d="M11.1906 63.5C10.2701 63.5 9.52393 62.7538 9.52393 61.8333C9.52393 60.9129 10.2701 60.1667 11.1906 60.1667C12.1111 60.1667 12.8573 60.9129 12.8573 61.8333C12.8573 62.7538 12.1111 63.5 11.1906 63.5Z" fill="black"/>
</svg>
